<svg width="108" height="42" viewBox="0 0 108 42" fill="none" xmlns="http://www.w3.org/2000/svg">
<path d="M33.3759 21.0937H25.9189C30.3795 22.0207 33.7567 26.3072 33.7568 31.4521C33.7568 37.2731 29.4345 41.9998 24.1103 42H0.380859V20.9052H7.83398C3.37537 19.9765 7.32163e-05 15.6903 0 10.5469C0 4.72593 4.32243 0.00026438 9.64647 0H33.3759V21.0937Z" fill="white"/>
<path d="M42.2657 0H56.2496V1.71937H42.2657V0ZM48.367 0.931618H50.1483V15.5375H48.367V0.931618Z" fill="white"/>
<path d="M58.2396 0H60.0208V15.5375H58.2396V0ZM59.1495 6.87748H70.9541V8.59685H59.1495V6.87748ZM69.988 0H71.7693V15.5375H69.988V0Z" fill="white"/>
<path d="M77.5865 7.76875L76.5065 15.0603L75.5597 13.8374H86.6646V15.5357H74.6883L75.863 7.76699L74.6867 0H86.5683V1.69832H75.5597L76.5065 0.475458L77.5865 7.76699V7.76875ZM86.1511 6.94064V8.5986H76.468V6.94064H86.1511Z" fill="white"/>
<path d="M42.2657 36.6999H44.0662C44.1545 37.4315 44.4193 38.0736 44.8622 38.6263C45.3035 39.1789 45.8876 39.6035 46.6146 39.9C47.3416 40.1965 48.1776 40.3457 49.126 40.3457C50.5527 40.3457 51.6872 40.0807 52.5281 39.5474C53.3674 39.0158 53.7879 38.2947 53.7879 37.3824C53.7879 36.6788 53.5263 36.1385 53.0015 35.7665C52.4768 35.3928 51.5637 35.1244 50.2638 34.9577L47.5165 34.584C45.7849 34.3629 44.5412 33.9103 43.7838 33.2278C43.0264 32.5436 42.6476 31.6225 42.6476 30.4628C42.6476 29.5382 42.8996 28.7329 43.4051 28.0486C43.9106 27.3644 44.6215 26.8398 45.5362 26.4749C46.4525 26.11 47.5229 25.9258 48.7473 25.9258C49.9718 25.9258 51.0614 26.1293 52.0162 26.5363C52.9694 26.9433 53.7285 27.51 54.2902 28.2346C54.8518 28.9592 55.1583 29.8119 55.2097 30.7926H53.4091C53.3337 30.1294 53.093 29.5592 52.6886 29.0838C52.2842 28.6066 51.7434 28.2346 51.0678 27.9644C50.3922 27.6942 49.6059 27.5609 48.7088 27.5609C47.4073 27.5609 46.3691 27.8135 45.5924 28.3171C44.8157 28.8206 44.4273 29.5224 44.4273 30.4207C44.4273 31.1119 44.6825 31.64 45.1944 32.005C45.7063 32.3716 46.5745 32.6366 47.8005 32.8032L50.4917 33.1962C51.7418 33.3612 52.7367 33.6033 53.4765 33.9208C54.2163 34.2384 54.7491 34.663 55.0781 35.1946C55.4071 35.7262 55.5708 36.3999 55.5708 37.2139C55.5708 38.1947 55.3028 39.0438 54.7652 39.7614C54.2276 40.479 53.4733 41.0316 52.5008 41.4194C51.5284 41.8054 50.397 42.0001 49.1084 42.0001C47.8198 42.0001 46.6515 41.7755 45.6405 41.3264C44.6295 40.8773 43.8271 40.2562 43.2334 39.4614C42.6396 38.6666 42.3171 37.7455 42.2673 36.6964L42.2657 36.6999Z" fill="white"/>
<path d="M57.5576 33.1767H61.7075V34.8347H57.5576V33.1767Z" fill="white"/>
<path d="M66.3868 26.1963V40.8635L65.5908 40.0144H76.3347V41.7338H64.6055V26.1963H66.3868Z" fill="white"/>
<path d="M85.9055 26.1963L92.8974 41.7338H90.9653L84.3906 26.8594H85.3374L78.7434 41.7338H76.8113L83.8032 26.1963H85.9071H85.9055Z" fill="white"/>
<path d="M102.959 33.965L103.168 33.4685C104.317 33.4825 105.246 33.672 105.954 34.0387C106.662 34.4054 107.178 34.8949 107.507 35.5089C107.836 36.123 108 36.8037 108 37.5494C108 38.3652 107.82 39.0863 107.459 39.7144C107.1 40.3425 106.572 40.8372 105.877 41.1951C105.182 41.5548 104.323 41.7338 103.3 41.7338H94.3371L95.4556 33.758L94.3371 26.1963H102.977C104.291 26.1963 105.298 26.5314 105.999 27.2016C106.7 27.8718 107.05 28.7858 107.05 29.9473C107.05 30.5561 106.914 31.1526 106.642 31.7386C106.371 32.3263 105.938 32.8229 105.344 33.2299C104.75 33.6369 103.954 33.8825 102.956 33.965H102.959ZM96.1568 41.0916L95.4748 40.1179H103.207C104.141 40.1179 104.871 39.8863 105.395 39.4231C105.92 38.96 106.182 38.2933 106.182 37.4248C106.182 36.5002 105.872 35.7879 105.253 35.2914C104.633 34.7949 103.718 34.5457 102.505 34.5457H96.3655V32.972H102.411C103.219 32.972 103.892 32.7299 104.429 32.2474C104.965 31.7649 105.235 31.0596 105.235 30.135C105.235 29.4578 105.017 28.9016 104.582 28.4665C104.145 28.0314 103.505 27.8139 102.658 27.8139H95.4764L96.1584 26.8401L97.1823 33.7597L96.1584 41.0934L96.1568 41.0916Z" fill="white"/>
<path d="M3.15283 38.3116H3.74524C3.75558 38.3885 3.78763 38.4563 3.8414 38.5151C3.89516 38.5739 3.9665 38.6191 4.05541 38.6508C4.14639 38.6824 4.25185 38.6982 4.37178 38.6982C4.5434 38.6982 4.67781 38.6722 4.77499 38.6202C4.87425 38.5682 4.92387 38.4948 4.92387 38.3998C4.92387 38.3275 4.89492 38.2721 4.83703 38.2336C4.7812 38.193 4.67574 38.1636 4.52066 38.1455L4.07092 38.0946C3.75869 38.0607 3.53226 37.9816 3.39166 37.8572C3.25312 37.7329 3.18385 37.5633 3.18385 37.3486C3.18385 37.179 3.22934 37.0343 3.32032 36.9145C3.41337 36.7947 3.5426 36.7031 3.70802 36.6398C3.87551 36.5765 4.07092 36.5449 4.29424 36.5449C4.51549 36.5449 4.71089 36.5799 4.88045 36.65C5.05001 36.7201 5.18545 36.8173 5.28677 36.9416C5.38809 37.066 5.44288 37.2118 5.45115 37.3791H4.85874C4.85047 37.309 4.82152 37.2502 4.77189 37.2028C4.72433 37.153 4.6592 37.1146 4.57649 37.0875C4.49585 37.0581 4.39866 37.0434 4.28493 37.0434C4.12778 37.0434 4.00268 37.0682 3.90963 37.118C3.81865 37.1655 3.77316 37.2344 3.77316 37.3248C3.77316 37.3927 3.80004 37.4458 3.8538 37.4842C3.90963 37.5226 4.00785 37.5509 4.14846 37.569L4.62301 37.6266C4.84013 37.6515 5.01382 37.6911 5.14409 37.7453C5.27436 37.7996 5.36844 37.8742 5.42634 37.9691C5.48424 38.0641 5.51319 38.1839 5.51319 38.3286C5.51319 38.5027 5.4646 38.6553 5.36741 38.7864C5.27229 38.9153 5.13789 39.0159 4.9642 39.0882C4.79257 39.1605 4.592 39.1967 4.36247 39.1967C4.12468 39.1967 3.91584 39.1594 3.73594 39.0848C3.55811 39.0102 3.4175 38.9073 3.31411 38.7762C3.21279 38.6428 3.15903 38.488 3.15283 38.3116Z" fill="black"/>
<path d="M5.79236 37.7046H6.58328V38.2065H5.79236V37.7046Z" fill="black"/>
<path d="M7.57026 36.5991V38.8576L7.30662 38.5761H9.04975V39.1425H6.98405V36.5991H7.57026Z" fill="black"/>
<path d="M9.75022 38.6304V38.1116H11.3569V38.6304H9.75022ZM10.9475 36.5991L12.0206 39.1425H11.3972L10.476 36.867H10.6559L9.73781 39.1425H9.11128L10.1876 36.5991H10.9475Z" fill="black"/>
<path d="M13.7928 37.8945L13.8424 37.7691C14.0244 37.7736 14.1733 37.8041 14.2891 37.8606C14.4069 37.9171 14.4938 37.9951 14.5496 38.0946C14.6075 38.1918 14.6364 38.3037 14.6364 38.4303C14.6364 38.5682 14.6075 38.6914 14.5496 38.8C14.4917 38.9062 14.4048 38.9899 14.2891 39.0509C14.1753 39.1119 14.0327 39.1425 13.861 39.1425H12.1861L12.366 37.8369L12.1861 36.5991H13.8021C14.0171 36.5991 14.1836 36.6545 14.3015 36.7653C14.4214 36.8738 14.4814 37.0242 14.4814 37.2163C14.4814 37.3226 14.4586 37.4243 14.4131 37.5215C14.3676 37.6187 14.2953 37.7012 14.196 37.7691C14.0968 37.8346 13.9623 37.8765 13.7928 37.8945ZM12.763 38.9865L12.5397 38.6847H13.7215C13.8228 38.6847 13.9013 38.6587 13.9572 38.6067C14.0151 38.5524 14.044 38.4767 14.044 38.3795C14.044 38.2823 14.012 38.2054 13.9479 38.1489C13.8858 38.0901 13.7928 38.0607 13.6687 38.0607H12.701V37.6131H13.5943C13.6791 37.6131 13.7494 37.5871 13.8052 37.5351C13.861 37.4808 13.8889 37.4073 13.8889 37.3147C13.8889 37.2401 13.8641 37.179 13.8145 37.1315C13.7669 37.0818 13.6987 37.0569 13.6098 37.0569H12.5428L12.763 36.7551L12.9274 37.8369L12.763 38.9865Z" fill="black"/>
<path d="M4.05851 33.0143H4.64472V35.2728H4.05851V33.0143ZM3.15283 32.7295H5.55041V33.2958H3.15283V32.7295Z" fill="black"/>
<path d="M5.8314 32.7295H6.41761V35.2728H5.8314V32.7295ZM7.67998 32.7295H8.2662V35.2728H7.67998V32.7295ZM6.15707 33.7027H7.92812V34.2656H6.15707V33.7027Z" fill="black"/>
<path d="M10.6751 33.7637V34.2385H8.99094V33.7637H10.6751ZM9.38795 34.0011L9.23287 35.0524L8.98784 34.7472H10.7744V35.2728H8.64666L8.82655 34.0011L8.64666 32.7295H10.7589V33.2551H8.98784L9.23287 32.9499L9.38795 34.0011Z" fill="black"/>
</svg>
