<svg width="282" height="133" viewBox="0 0 282 133" fill="none" xmlns="http://www.w3.org/2000/svg">
<path d="M0 0H59.9909V6.44503H0V0ZM26.1746 3.49215H33.8163V58.242H26.1746V3.49215Z" fill="black"/>
<path d="M68.5273 0H76.1691V58.242H68.5273V0ZM72.4308 25.7801H123.073V32.2251H72.4308V25.7801ZM118.928 0H126.57V58.242H118.928V0Z" fill="black"/>
<path d="M151.526 29.121L146.893 56.4532L142.831 51.8693H190.471V58.2354H139.093L144.132 29.1144L139.086 0H190.058V6.36611H142.831L146.893 1.78225L151.526 29.1144V29.121ZM188.268 26.0169V32.2317H146.728V26.0169H188.268Z" fill="black"/>
<path d="M0 112.371H7.72433C8.10298 115.113 9.23891 117.52 11.139 119.592C13.0322 121.664 15.5382 123.255 18.6568 124.367C21.7755 125.478 25.3622 126.037 29.4309 126.037C35.5512 126.037 40.4185 125.044 44.0259 123.045C47.6265 121.052 49.4302 118.349 49.4302 114.929C49.4302 112.292 48.3081 110.267 46.0568 108.872C43.8056 107.471 39.8884 106.465 34.312 105.84L22.5259 104.44C15.0976 103.611 9.76212 101.914 6.51267 99.356C3.26322 96.7911 1.63849 93.3385 1.63849 88.9914C1.63849 85.5255 2.71935 82.5069 4.88795 79.942C7.05654 77.3771 10.1063 75.4108 14.0305 74.0428C17.9615 72.6749 22.5534 71.9844 27.8062 71.9844C33.059 71.9844 37.7336 72.7473 41.8298 74.273C45.9192 75.7988 49.1755 77.923 51.585 80.6391C53.9946 83.3552 55.3095 86.5514 55.5298 90.2277H47.8055C47.4819 87.7418 46.4493 85.6044 44.7144 83.8222C42.9795 82.0334 40.6595 80.6391 37.7611 79.6263C34.8628 78.6135 31.4894 78.1137 27.641 78.1137C22.0577 78.1137 17.6035 79.0607 14.2714 80.9482C10.9394 82.8357 9.27333 85.4663 9.27333 88.8335C9.27333 91.4247 10.368 93.4042 12.5641 94.7721C14.7602 96.1466 18.4847 97.1397 23.7444 97.7645L35.2896 99.2376C40.6526 99.8558 44.9209 100.763 48.0946 101.954C51.2684 103.144 53.554 104.736 54.9653 106.728C56.3766 108.721 57.0788 111.246 57.0788 114.298C57.0788 117.974 55.9291 121.157 53.6228 123.847C51.3166 126.537 48.0809 128.609 43.9089 130.062C39.7369 131.509 34.8834 132.239 29.3552 132.239C23.827 132.239 18.8152 131.397 14.478 129.713C10.1408 128.03 6.69855 125.702 4.15131 122.723C1.60407 119.743 0.220302 116.291 0.00688443 112.358L0 112.371Z" fill="black"/>
<path d="M65.6016 99.165H83.4047V105.38H65.6016V99.165Z" fill="black"/>
<path d="M103.48 72.9971V127.977L100.065 124.794H146.156V131.239H95.8379V72.9971H103.48Z" fill="black"/>
<path d="M187.215 72.9971L217.211 131.239H208.922L180.716 75.483H184.778L156.49 131.239H148.201L178.197 72.9971H187.222H187.215Z" fill="black"/>
<path d="M260.376 102.118L261.271 100.257C266.2 100.31 270.186 101.02 273.222 102.394C276.258 103.769 278.475 105.604 279.886 107.905C281.298 110.207 282 112.759 282 115.554C282 118.612 281.229 121.315 279.68 123.669C278.138 126.024 275.873 127.878 272.892 129.22C269.911 130.568 266.228 131.239 261.835 131.239H223.386L228.184 101.342L223.386 72.9971H260.452C266.09 72.9971 270.406 74.2532 273.415 76.7654C276.423 79.2777 277.924 82.7041 277.924 87.0578C277.924 89.3398 277.339 91.5758 276.176 93.7724C275.012 95.9756 273.153 97.8367 270.606 99.3625C268.059 100.888 264.644 101.809 260.362 102.118H260.376ZM231.193 128.832L228.267 125.182H261.436C265.443 125.182 268.575 124.314 270.826 122.578C273.078 120.842 274.2 118.342 274.2 115.087C274.2 111.621 272.871 108.951 270.214 107.09C267.556 105.229 263.632 104.295 258.427 104.295H232.088V98.3957H258.021C261.491 98.3957 264.376 97.4882 266.682 95.6796C268.981 93.8711 270.138 91.2273 270.138 87.7614C270.138 85.2229 269.202 83.1381 267.336 81.5071C265.463 79.8762 262.716 79.0607 259.082 79.0607H228.274L231.2 75.4107L235.592 101.349L231.2 128.839L231.193 128.832Z" fill="black"/>
</svg>
